<svg width="333" height="156" viewBox="0 0 333 156" fill="none" xmlns="http://www.w3.org/2000/svg">
<g filter="url(#filter0_f_2825_1141)">
<path d="M14.4274 94.1873C15.1201 94.0896 15.4968 93.7529 15.5379 93.0381C15.6982 92.1647 16.7892 90.8765 19.2267 89.1147C20.4952 88.085 23.5864 85.9474 23.6059 86.0865L23.8979 88.1722C24.7778 101.519 26.9802 116.238 29.9575 129.43C32.7185 142.086 34.3914 145.962 38.0472 147.857C39.2723 148.535 41.3092 148.956 43.0105 149C43.149 148.98 43.5646 148.922 44.1188 148.844C44.3959 148.805 44.5344 148.785 44.8115 148.746C46.3353 148.531 46.87 148.314 47.2077 147.699C47.6645 146.926 47.4676 146.528 46.0066 145.174C44.0327 143.184 41.542 133.468 38.2404 114.933C37.3208 110.384 35.5102 97.4523 35.2031 93.2418C34.6213 88.0775 33.966 80.3712 34.0851 80.2126C34.0851 80.2126 36.8775 78.968 39.3929 77.7624C41.1159 76.9522 42.8585 76.281 44.601 75.6098C44.6594 76.0269 44.6961 77.2979 44.8713 78.5493L45.3776 82.1646C45.4727 83.8527 45.7842 86.0774 45.9766 88.4608C46.1129 89.4341 46.1496 90.7051 46.208 91.1223C46.4611 92.9299 47.5904 100.995 47.1725 102.046C46.8543 102.8 46.9322 103.356 47.484 104.271C47.7005 104.808 47.7394 105.086 47.8367 105.781C47.8952 106.198 48.0097 108.025 48.2823 109.972C48.6328 112.475 48.8836 115.275 49.0955 117.798C49.3681 119.744 49.6212 121.552 49.5022 121.711C49.58 122.267 50.6486 130.907 50.9017 132.715C51.1354 134.383 51.1354 134.383 51.4903 134.901C52.9101 136.969 57.3387 138.329 60.1094 137.939C60.6636 137.86 61.1982 137.643 61.5944 137.445C62.2286 136.931 62.2676 137.209 61.4888 131.647C61.0799 128.727 60.6516 125.668 60.6344 124.536C60.4981 123.562 60.1866 121.338 60.0915 119.65C58.7113 108.784 58.3826 105.428 58.6207 105.11C58.8394 104.654 63.8401 97.9935 65.4074 96.0709C70.9428 89.1929 75.5624 84.8546 78.4739 83.4513C78.6124 83.4318 78.7315 83.2732 78.87 83.2536C79.1471 83.2146 79.186 83.4926 79.5193 84.8636C79.9109 86.6517 80.7676 92.7698 80.9795 95.2922C81.0723 97.9732 81.4183 102.462 81.455 103.733C81.3943 104.308 81.5089 106.136 81.5846 107.685C81.9215 116.145 82.0765 126.332 81.7538 129.072C81.5913 130.938 81.6497 131.355 82.1627 131.992C83.2275 133.543 85.6777 134.899 88.1691 135.54C88.6042 135.621 89.1972 135.82 89.4743 135.781C89.6323 135.901 90.1864 135.823 90.7406 135.745C92.1065 135.41 92.3641 135.232 92.388 133.385C92.6546 129.236 92.3334 113.825 91.6759 107.112C91.6976 106.258 91.6002 105.563 91.5808 105.424C91.6025 104.57 90.7848 98.73 90.3542 96.6639C89.0452 89.3334 87.2944 84.9012 84.6128 80.8838C81.4183 76.2298 77.0915 73.5789 73.4896 74.087C69.7492 74.6146 64.9716 78.8334 57.5724 87.5341L56.6198 88.8028C56.4813 88.8223 56.4229 88.4052 56.4836 87.8294C56.3862 87.1342 55.3543 79.7647 54.2835 72.117C58.0846 71.0137 61.351 70.1275 63.9831 69.7562C65.7841 69.5022 67.8816 69.3481 69.6219 69.6698C70.176 69.5916 70.176 69.5916 70.5332 69.1159C70.6523 68.9573 70.8515 68.362 70.9511 68.0644C71.1308 67.33 71.1113 67.191 70.8777 65.5224C70.5662 63.2976 69.7417 60.4363 67.7266 59.1608C66.5621 57.9071 61.9905 58.552 60.4666 58.7669C57.973 59.1187 56.4686 59.4727 53.6178 60.3002C53.3407 60.3393 52.9445 60.537 52.6675 60.5761C52.159 57.9537 51.8864 56.007 51.8086 55.4508C50.4195 48.5571 50.3611 48.1399 50.3483 45.0222C50.3311 43.8903 49.3247 42.7561 47.7252 41.422C45.6711 39.8685 43.0022 38.9688 41.4784 39.1837C41.2013 39.2228 41.0628 39.2424 40.8052 39.4205C39.9133 40.1135 39.9695 41.5235 40.9257 47.344C41.3952 49.6882 42.6024 58.3092 43.3617 63.7321C40.9459 64.64 38.5302 65.548 36.1339 66.595C34.6685 67.2271 33.48 67.8201 33.48 67.8201C33.322 67.7006 33.2906 55.3689 33.492 53.7808C33.4531 53.5027 33.6717 53.0464 33.7908 52.8879C34.0095 52.4316 34.0095 52.4316 33.9121 51.7364C33.0877 48.875 27.6137 46.1023 24.843 46.4932C23.5961 46.669 23.1004 47.1643 23.018 48.5939C22.8533 51.453 22.6661 64.2409 23.0031 72.701C23.0225 72.8401 22.5073 73.1964 21.3384 73.9284C17.8121 75.9856 8.79841 81.2273 7.24607 85.2747C6.94728 86.1677 6.96675 86.3067 7.0641 87.0019C7.51191 90.2 12.0723 94.5195 14.4274 94.1873Z" fill="#FF4D2F"/>
<path d="M139.163 58.5841C135.259 52.8959 126.326 48.626 119.399 49.6031C118.014 49.7985 116.667 50.272 115.321 50.7455C107.875 54.0646 101.488 60.9208 97.2388 67.901C93.2468 74.7031 91.4885 82.3244 91.7259 91.0822C92.0367 102.382 95.4147 113.391 100.585 119.042C103.131 122.086 106.509 124.02 110.466 124.029C111.178 124.07 111.871 123.973 112.564 123.875C123.092 122.39 133.964 109.229 136.045 98.8681C136.504 97.1018 136.807 94.2232 136.829 93.3693C136.678 90.2712 134.234 85.9367 132.336 85.4955C132.178 85.3759 131.901 85.415 131.762 85.4346C131.07 85.5323 130.732 86.1471 130.492 87.4572C130.169 90.1968 130.108 90.7725 129.79 91.5264C127.475 100.219 118.071 111.754 108.513 113.103C102.14 114.002 100.683 110.662 99.1124 105.496C98.7597 103.986 98.1172 99.3972 98.0026 97.5701C97.9727 93.3205 98.2782 89.4489 99.0967 86.214L99.1768 85.7773L100.343 86.0381C103.686 86.701 108.019 86.3733 115.084 85.3767C123.635 83.887 141.172 79.9952 142.145 69.7906C142.509 66.3362 141.312 61.8257 139.163 58.5841ZM135.152 65.2471C131.72 68.9924 123.958 72.0725 113.646 74.0943C110.737 74.5047 107.966 74.8955 105.057 75.3059L103.948 75.4622L104.663 74.5107C108.752 68.4038 115.731 61.7476 123.212 60.6923C126.834 60.3233 130.966 61.5837 134.857 64.1542L135.647 64.7518L135.152 65.2471Z" fill="#FF4D2F"/>
<path d="M246.066 22.3768C245.558 19.7545 239.109 19.1043 237.031 19.3974C235.388 19.771 235.15 20.0882 233.838 22.8255C231.234 28.4393 228.796 39.276 227.303 51.8227C225.934 62.2249 225.613 73.0466 227.073 83.4752L227.032 84.19L226.697 83.8119C226.519 83.5534 226.006 82.9168 225.474 82.1411C219.022 74.4018 213.977 65.6132 209.605 56.5879C205.883 49.1725 205.547 48.7944 204.599 48.0774C202.881 46.9019 199.993 46.4584 197.5 46.8102C196.114 47.0056 194.768 47.4791 194.172 48.2721C193.32 49.2431 193.239 49.6798 193.406 54.9028C193.537 66.9368 193.852 76.2508 194.624 84.7913C194.739 86.6185 194.953 88.148 194.953 88.148C194.814 88.1675 191.86 82.2035 190.462 79.2812C189.99 77.9298 189.164 76.0613 188.592 75.0076C185.657 69.1826 183.041 62.6038 181.922 58.6495C181.412 57.0201 181.492 56.5834 181.691 55.9881C181.91 55.5319 181.851 55.1147 181.338 54.4781C180.016 53.1049 176.496 52.1834 173.587 52.5938C171.093 52.9456 170.082 53.7972 170.058 55.6439C170.151 58.3249 173.157 67.6847 176.603 75.1391C177.291 77.0272 178.866 80.208 180.342 83.6864C182.625 88.8943 190.109 104.003 195.685 105.485C195.982 105.585 196.417 105.666 196.852 105.746C197.425 105.807 198.276 105.829 199.107 105.712C200.354 105.536 201.72 105.201 202.512 104.806C204.512 103.957 206.019 102.61 206.537 101.261C207.292 99.5943 207.219 97.0523 206.252 87.1213C206.021 84.4598 205.908 81.6398 205.772 80.6665C205.582 77.2902 205.255 72.9407 205.355 72.643C205.316 72.3649 205.474 72.4844 205.71 73.1601C208.922 78.946 221.598 98.8524 229.157 98.3533C231.789 97.982 234.343 97.0546 236.345 95.2124C238.744 93.1725 238.906 91.3062 238.217 81.3361C237.354 69.1217 237.326 63.8792 238.557 53.4965C240.129 40.5132 242.806 29.3593 245.507 24.4407C246.163 23.0721 246.282 22.9135 246.066 22.3768Z" fill="#FF4D2F"/>
<path d="M291.081 44.244C290.235 42.2365 288.854 40.4461 286.977 39.1511C285.378 37.817 284.488 37.5171 283.103 37.7125C280.886 38.0252 261.036 49.6165 257.172 52.2885C256.261 52.8424 254.696 53.7722 253.665 54.4847C252.635 55.1972 250.97 56.4246 249.94 57.1371C247.741 58.5817 247.622 58.7403 247.758 59.7137C248.128 62.3556 252 64.787 254.392 65.7258C254.965 65.7867 255.262 65.8866 255.678 65.828C255.816 65.8085 255.955 65.7889 256.093 65.7694C257.063 65.6326 257.598 65.4154 257.974 65.0787C258.093 64.9201 259.124 64.2075 260.293 63.4755C261.343 62.902 263.304 61.7746 264.592 60.8839C266.038 60.1128 268.376 58.6486 269.941 57.7189C271.525 56.9282 275.051 54.871 277.666 53.3678C280.4 51.706 282.639 50.5395 282.639 50.5395C282.777 50.52 282.576 52.1081 282.413 53.9744C282.028 58.2826 281.685 60.8832 281.679 63.8618C281.577 65.1523 281.455 66.3038 281.455 66.3038C281.455 66.3038 281.001 66.0843 280.388 65.7453C279.914 65.3868 279.005 64.9479 278.412 64.7479C276.317 63.9091 274.438 63.607 272.637 63.861C264.602 64.9945 257.432 77.3494 254.964 83.9366C252.675 89.7893 252.526 94.7733 254.339 97.6369C255.837 100.262 259.69 102.554 263.012 103.078C263.725 103.119 264.556 103.002 265.248 102.904C265.803 102.826 266.218 102.767 266.614 102.57C269.011 101.523 273.63 97.1844 280.85 89.2181C281.226 88.8814 281.464 88.5642 281.603 88.5447C281.603 88.5447 281.581 89.3985 281.679 90.0937C281.832 92.199 282.2 95.8338 282.633 96.9071C282.927 97.9999 283.676 99.3122 284.208 100.088C285.925 102.256 288.888 104.249 290.866 104.253C291.005 104.234 291.282 104.195 291.42 104.175C291.974 104.097 292.232 103.919 292.451 103.463C292.511 102.887 292.433 102.331 292.04 101.535C291.804 100.86 291.765 100.582 291.453 98.3569C290.986 95.0198 290.659 90.6702 290.636 83.442C290.498 74.3866 290.512 68.4293 291.145 59.8324C291.448 56.9537 291.68 50.5403 291.862 48.8131C291.925 47.2444 291.672 45.4368 291.081 44.244ZM275.275 78.661C272.339 81.911 269.404 85.1609 266.33 88.4304C265.715 89.0843 265.081 89.5992 265.081 89.5992C265.081 89.5992 265.161 89.1625 265.38 88.7063C267.33 83.4683 270.666 78.0349 274.156 74.7068C275.524 73.3794 276.773 72.2107 276.931 72.3302C277.089 72.4497 277.52 74.5159 277.814 75.6087C277.853 75.8868 277.357 76.3821 275.275 78.661Z" fill="#FF4D2F"/>
<path d="M299.748 13.1028C298.171 10.9149 293.961 9.09821 291.328 9.46951C290.359 9.6063 289.963 9.80397 289.625 10.4188C289.525 10.7164 289.659 12.6826 290.28 18.125C290.646 22.7527 290.819 24.997 290.948 28.949C291.993 56.5932 292.357 62.2137 295.314 84.3419C296.75 96.6172 298.76 108.953 299.351 110.146C299.567 110.683 300.673 111.519 301.563 111.819C302.788 112.497 304.805 112.78 306.368 112.843C307.476 112.687 308.446 112.55 309.516 112.115C310.288 111.581 310.507 111.125 310.39 110.29C309.39 106.178 307.383 92.8486 305.613 79.2024C303.805 65.2781 303.132 56.4399 302.086 37.8706C301.518 26.749 301.343 25.4976 300.78 20.4723C300.763 19.3404 300.588 18.089 300.51 17.5328C300.242 13.6004 300.261 13.7394 299.748 13.1028ZM316.849 10.1234C315.31 8.21356 310.862 6.7141 308.507 7.04631C307.537 7.1831 307.141 7.38078 306.803 7.99559C306.684 8.15418 306.799 9.98135 307.322 14.7285C307.629 18.939 307.763 20.9052 307.834 24.4401C308.451 49.0252 308.717 53.9505 311.324 73.5758C312.566 84.4607 314.381 95.4063 314.952 96.4601C315.168 96.9967 316.255 97.6942 317.145 97.9941C318.35 98.533 320.368 98.8157 321.93 98.8788C323.039 98.7225 324.008 98.5857 325.078 98.1512C325.851 97.6168 326.089 97.2997 325.972 96.4654C325.031 92.7697 323.237 80.9702 321.682 68.8535C320.107 56.5977 319.571 48.7329 318.797 32.1103C318.404 22.2401 318.248 21.1277 317.764 16.6587C317.766 15.6658 317.61 14.5534 317.552 14.1362C317.342 10.621 317.362 10.76 316.849 10.1234Z" fill="#FF4D2F"/>
</g>
<defs>
<filter id="filter0_f_2825_1141" x="0" y="0" width="333" height="156" filterUnits="userSpaceOnUse" color-interpolation-filters="sRGB">
<feFlood flood-opacity="0" result="BackgroundImageFix"/>
<feBlend mode="normal" in="SourceGraphic" in2="BackgroundImageFix" result="shape"/>
<feGaussianBlur stdDeviation="3.5" result="effect1_foregroundBlur_2825_1141"/>
</filter>
</defs>
</svg>
